<svg fill="none" height="96" viewBox="0 0 4 96" width="4" xmlns="http://www.w3.org/2000/svg">
  <g clip-path="url(#clip0_1_2)">
    <path d="M1 0H0V1H1V0Z" fill="#FAF4ED"/>
    <path d="M2 0H1V1H2V0Z" fill="#FAF4ED"/>
    <path d="M3 0H2V1H3V0Z" fill="#FAF4ED"/>
    <path d="M4 0H3V1H4V0Z" fill="#FAF4ED"/>
    <path d="M1 1H0V2H1V1Z" fill="#FAF4ED"/>
    <path d="M2 1H1V2H2V1Z" fill="#FAF4ED"/>
    <path d="M3 1H2V2H3V1Z" fill="#FAF4ED"/>
    <path d="M4 1H3V2H4V1Z" fill="#FAF4ED"/>
    <path d="M1 2H0V3H1V2Z" fill="#FAF4ED"/>
    <path d="M2 2H1V3H2V2Z" fill="#FAF4ED"/>
    <path d="M3 2H2V3H3V2Z" fill="#FAF4ED"/>
    <path d="M4 2H3V3H4V2Z" fill="#FAF4ED"/>
    <path d="M1 3H0V4H1V3Z" fill="#FAF4ED"/>
    <path d="M2 3H1V4H2V3Z" fill="#FAF4ED"/>
    <path d="M3 3H2V4H3V3Z" fill="#FAF4ED"/>
    <path d="M4 3H3V4H4V3Z" fill="#FAF4ED"/>
    <path d="M1 4H0V5H1V4Z" fill="#EFE8E0"/>
    <path d="M2 4H1V5H2V4Z" fill="#FAF4ED"/>
    <path d="M3 4H2V5H3V4Z" fill="#FAF4ED"/>
    <path d="M4 4H3V5H4V4Z" fill="#FAF4ED"/>
    <path d="M1 5H0V6H1V5Z" fill="#FAF4ED"/>
    <path d="M2 5H1V6H2V5Z" fill="#FAF4ED"/>
    <path d="M3 5H2V6H3V5Z" fill="#FAF4ED"/>
    <path d="M4 5H3V6H4V5Z" fill="#FAF4ED"/>
    <path d="M1 6H0V7H1V6Z" fill="#FAF4ED"/>
    <path d="M2 6H1V7H2V6Z" fill="#FAF4ED"/>
    <path d="M3 6H2V7H3V6Z" fill="#EFE8E0"/>
    <path d="M4 6H3V7H4V6Z" fill="#FAF4ED"/>
    <path d="M1 7H0V8H1V7Z" fill="#FAF4ED"/>
    <path d="M2 7H1V8H2V7Z" fill="#FAF4ED"/>
    <path d="M3 7H2V8H3V7Z" fill="#FAF4ED"/>
    <path d="M4 7H3V8H4V7Z" fill="#FAF4ED"/>
    <path d="M1 8H0V9H1V8Z" fill="#EFE8E0"/>
    <path d="M2 8H1V9H2V8Z" fill="#FAF4ED"/>
    <path d="M3 8H2V9H3V8Z" fill="#EFE8E0"/>
    <path d="M4 8H3V9H4V8Z" fill="#FAF4ED"/>
    <path d="M1 9H0V10H1V9Z" fill="#FAF4ED"/>
    <path d="M2 9H1V10H2V9Z" fill="#FAF4ED"/>
    <path d="M3 9H2V10H3V9Z" fill="#FAF4ED"/>
    <path d="M4 9H3V10H4V9Z" fill="#FAF4ED"/>
    <path d="M1 10H0V11H1V10Z" fill="#EFE8E0"/>
    <path d="M2 10H1V11H2V10Z" fill="#FAF4ED"/>
    <path d="M3 10H2V11H3V10Z" fill="#EFE8E0"/>
    <path d="M4 10H3V11H4V10Z" fill="#FAF4ED"/>
    <path d="M1 11H0V12H1V11Z" fill="#FAF4ED"/>
    <path d="M2 11H1V12H2V11Z" fill="#FAF4ED"/>
    <path d="M3 11H2V12H3V11Z" fill="#FAF4ED"/>
    <path d="M4 11H3V12H4V11Z" fill="#FAF4ED"/>
    <path d="M1 12H0V13H1V12Z" fill="#EFE8E0"/>
    <path d="M2 12H1V13H2V12Z" fill="#FAF4ED"/>
    <path d="M3 12H2V13H3V12Z" fill="#EFE8E0"/>
    <path d="M4 12H3V13H4V12Z" fill="#FAF4ED"/>
    <path d="M1 13H0V14H1V13Z" fill="#FAF4ED"/>
    <path d="M2 13H1V14H2V13Z" fill="#EFE8E0"/>
    <path d="M3 13H2V14H3V13Z" fill="#FAF4ED"/>
    <path d="M4 13H3V14H4V13Z" fill="#FAF4ED"/>
    <path d="M1 14H0V15H1V14Z" fill="#EFE8E0"/>
    <path d="M2 14H1V15H2V14Z" fill="#FAF4ED"/>
    <path d="M3 14H2V15H3V14Z" fill="#EFE8E0"/>
    <path d="M4 14H3V15H4V14Z" fill="#FAF4ED"/>
    <path d="M1 15H0V16H1V15Z" fill="#FAF4ED"/>
    <path d="M2 15H1V16H2V15Z" fill="#FAF4ED"/>
    <path d="M3 15H2V16H3V15Z" fill="#FAF4ED"/>
    <path d="M4 15H3V16H4V15Z" fill="#EFE8E0"/>
    <path d="M1 16H0V17H1V16Z" fill="#EFE8E0"/>
    <path d="M2 16H1V17H2V16Z" fill="#FAF4ED"/>
    <path d="M3 16H2V17H3V16Z" fill="#EFE8E0"/>
    <path d="M4 16H3V17H4V16Z" fill="#FAF4ED"/>
    <path d="M1 17H0V18H1V17Z" fill="#FAF4ED"/>
    <path d="M2 17H1V18H2V17Z" fill="#EFE8E0"/>
    <path d="M3 17H2V18H3V17Z" fill="#FAF4ED"/>
    <path d="M4 17H3V18H4V17Z" fill="#EFE8E0"/>
    <path d="M1 18H0V19H1V18Z" fill="#EFE8E0"/>
    <path d="M2 18H1V19H2V18Z" fill="#FAF4ED"/>
    <path d="M3 18H2V19H3V18Z" fill="#EFE8E0"/>
    <path d="M4 18H3V19H4V18Z" fill="#FAF4ED"/>
    <path d="M1 19H0V20H1V19Z" fill="#FAF4ED"/>
    <path d="M2 19H1V20H2V19Z" fill="#EFE8E0"/>
    <path d="M3 19H2V20H3V19Z" fill="#FAF4ED"/>
    <path d="M4 19H3V20H4V19Z" fill="#EFE8E0"/>
    <path d="M1 20H0V21H1V20Z" fill="#EFE8E0"/>
    <path d="M2 20H1V21H2V20Z" fill="#EFE8E0"/>
    <path d="M3 20H2V21H3V20Z" fill="#EFE8E0"/>
    <path d="M4 20H3V21H4V20Z" fill="#FAF4ED"/>
    <path d="M1 21H0V22H1V21Z" fill="#FAF4ED"/>
    <path d="M2 21H1V22H2V21Z" fill="#EFE8E0"/>
    <path d="M3 21H2V22H3V21Z" fill="#FAF4ED"/>
    <path d="M4 21H3V22H4V21Z" fill="#EFE8E0"/>
    <path d="M1 22H0V23H1V22Z" fill="#EFE8E0"/>
    <path d="M2 22H1V23H2V22Z" fill="#FAF4ED"/>
    <path d="M3 22H2V23H3V22Z" fill="#EFE8E0"/>
    <path d="M4 22H3V23H4V22Z" fill="#EFE8E0"/>
    <path d="M1 23H0V24H1V23Z" fill="#FAF4ED"/>
    <path d="M2 23H1V24H2V23Z" fill="#EFE8E0"/>
    <path d="M3 23H2V24H3V23Z" fill="#FAF4ED"/>
    <path d="M4 23H3V24H4V23Z" fill="#EFE8E0"/>
    <path d="M1 24H0V25H1V24Z" fill="#EFE8E0"/>
    <path d="M2 24H1V25H2V24Z" fill="#EFE8E0"/>
    <path d="M3 24H2V25H3V24Z" fill="#EFE8E0"/>
    <path d="M4 24H3V25H4V24Z" fill="#EFE8E0"/>
    <path d="M1 25H0V26H1V25Z" fill="#EFE8E0"/>
    <path d="M2 25H1V26H2V25Z" fill="#EFE8E0"/>
    <path d="M3 25H2V26H3V25Z" fill="#FAF4ED"/>
    <path d="M4 25H3V26H4V25Z" fill="#EFE8E0"/>
    <path d="M1 26H0V27H1V26Z" fill="#EFE8E0"/>
    <path d="M2 26H1V27H2V26Z" fill="#EFE8E0"/>
    <path d="M3 26H2V27H3V26Z" fill="#EFE8E0"/>
    <path d="M4 26H3V27H4V26Z" fill="#EFE8E0"/>
    <path d="M1 27H0V28H1V27Z" fill="#FAF4ED"/>
    <path d="M2 27H1V28H2V27Z" fill="#EFE8E0"/>
    <path d="M3 27H2V28H3V27Z" fill="#EFE8E0"/>
    <path d="M4 27H3V28H4V27Z" fill="#EFE8E0"/>
    <path d="M1 28H0V29H1V28Z" fill="#EFE8E0"/>
    <path d="M2 28H1V29H2V28Z" fill="#EFE8E0"/>
    <path d="M3 28H2V29H3V28Z" fill="#EFE8E0"/>
    <path d="M4 28H3V29H4V28Z" fill="#EFE8E0"/>
    <path d="M1 29H0V30H1V29Z" fill="#EFE8E0"/>
    <path d="M2 29H1V30H2V29Z" fill="#EFE8E0"/>
    <path d="M3 29H2V30H3V29Z" fill="#EFE8E0"/>
    <path d="M4 29H3V30H4V29Z" fill="#EFE8E0"/>
    <path d="M1 30H0V31H1V30Z" fill="#EFE8E0"/>
    <path d="M2 30H1V31H2V30Z" fill="#EFE8E0"/>
    <path d="M3 30H2V31H3V30Z" fill="#EFE8E0"/>
    <path d="M4 30H3V31H4V30Z" fill="#EFE8E0"/>
    <path d="M1 31H0V32H1V31Z" fill="#EFE8E0"/>
    <path d="M2 31H1V32H2V31Z" fill="#EFE8E0"/>
    <path d="M3 31H2V32H3V31Z" fill="#EFE8E0"/>
    <path d="M4 31H3V32H4V31Z" fill="#EFE8E0"/>
    <path d="M1 32H0V33H1V32Z" fill="#EFE8E0"/>
    <path d="M2 32H1V33H2V32Z" fill="#EFE8E0"/>
    <path d="M3 32H2V33H3V32Z" fill="#EFE8E0"/>
    <path d="M4 32H3V33H4V32Z" fill="#EFE8E0"/>
    <path d="M1 33H0V34H1V33Z" fill="#EFE8E0"/>
    <path d="M2 33H1V34H2V33Z" fill="#EFE8E0"/>
    <path d="M3 33H2V34H3V33Z" fill="#EFE8E0"/>
    <path d="M4 33H3V34H4V33Z" fill="#EFE8E0"/>
    <path d="M1 34H0V35H1V34Z" fill="#EFE8E0"/>
    <path d="M2 34H1V35H2V34Z" fill="#EFE8E0"/>
    <path d="M3 34H2V35H3V34Z" fill="#EFE8E0"/>
    <path d="M4 34H3V35H4V34Z" fill="#EFE8E0"/>
    <path d="M1 35H0V36H1V35Z" fill="#EFE8E0"/>
    <path d="M2 35H1V36H2V35Z" fill="#EFE8E0"/>
    <path d="M3 35H2V36H3V35Z" fill="#EFE8E0"/>
    <path d="M4 35H3V36H4V35Z" fill="#EFE8E0"/>
    <path d="M1 36H0V37H1V36Z" fill="#DFD7CF"/>
    <path d="M2 36H1V37H2V36Z" fill="#EFE8E0"/>
    <path d="M3 36H2V37H3V36Z" fill="#EFE8E0"/>
    <path d="M4 36H3V37H4V36Z" fill="#EFE8E0"/>
    <path d="M1 37H0V38H1V37Z" fill="#EFE8E0"/>
    <path d="M2 37H1V38H2V37Z" fill="#EFE8E0"/>
    <path d="M3 37H2V38H3V37Z" fill="#EFE8E0"/>
    <path d="M4 37H3V38H4V37Z" fill="#EFE8E0"/>
    <path d="M1 38H0V39H1V38Z" fill="#EFE8E0"/>
    <path d="M2 38H1V39H2V38Z" fill="#EFE8E0"/>
    <path d="M3 38H2V39H3V38Z" fill="#DFD7CF"/>
    <path d="M4 38H3V39H4V38Z" fill="#EFE8E0"/>
    <path d="M1 39H0V40H1V39Z" fill="#EFE8E0"/>
    <path d="M2 39H1V40H2V39Z" fill="#EFE8E0"/>
    <path d="M3 39H2V40H3V39Z" fill="#EFE8E0"/>
    <path d="M4 39H3V40H4V39Z" fill="#EFE8E0"/>
    <path d="M1 40H0V41H1V40Z" fill="#DFD7CF"/>
    <path d="M2 40H1V41H2V40Z" fill="#EFE8E0"/>
    <path d="M3 40H2V41H3V40Z" fill="#DFD7CF"/>
    <path d="M4 40H3V41H4V40Z" fill="#EFE8E0"/>
    <path d="M1 41H0V42H1V41Z" fill="#EFE8E0"/>
    <path d="M2 41H1V42H2V41Z" fill="#EFE8E0"/>
    <path d="M3 41H2V42H3V41Z" fill="#EFE8E0"/>
    <path d="M4 41H3V42H4V41Z" fill="#EFE8E0"/>
    <path d="M1 42H0V43H1V42Z" fill="#DFD7CF"/>
    <path d="M2 42H1V43H2V42Z" fill="#EFE8E0"/>
    <path d="M3 42H2V43H3V42Z" fill="#DFD7CF"/>
    <path d="M4 42H3V43H4V42Z" fill="#EFE8E0"/>
    <path d="M1 43H0V44H1V43Z" fill="#EFE8E0"/>
    <path d="M2 43H1V44H2V43Z" fill="#EFE8E0"/>
    <path d="M3 43H2V44H3V43Z" fill="#EFE8E0"/>
    <path d="M4 43H3V44H4V43Z" fill="#EFE8E0"/>
    <path d="M1 44H0V45H1V44Z" fill="#DFD7CF"/>
    <path d="M2 44H1V45H2V44Z" fill="#EFE8E0"/>
    <path d="M3 44H2V45H3V44Z" fill="#DFD7CF"/>
    <path d="M4 44H3V45H4V44Z" fill="#EFE8E0"/>
    <path d="M1 45H0V46H1V45Z" fill="#EFE8E0"/>
    <path d="M2 45H1V46H2V45Z" fill="#DFD7CF"/>
    <path d="M3 45H2V46H3V45Z" fill="#EFE8E0"/>
    <path d="M4 45H3V46H4V45Z" fill="#EFE8E0"/>
    <path d="M1 46H0V47H1V46Z" fill="#DFD7CF"/>
    <path d="M2 46H1V47H2V46Z" fill="#EFE8E0"/>
    <path d="M3 46H2V47H3V46Z" fill="#DFD7CF"/>
    <path d="M4 46H3V47H4V46Z" fill="#EFE8E0"/>
    <path d="M1 47H0V48H1V47Z" fill="#EFE8E0"/>
    <path d="M2 47H1V48H2V47Z" fill="#EFE8E0"/>
    <path d="M3 47H2V48H3V47Z" fill="#EFE8E0"/>
    <path d="M4 47H3V48H4V47Z" fill="#DFD7CF"/>
    <path d="M1 48H0V49H1V48Z" fill="#DFD7CF"/>
    <path d="M2 48H1V49H2V48Z" fill="#EFE8E0"/>
    <path d="M3 48H2V49H3V48Z" fill="#DFD7CF"/>
    <path d="M4 48H3V49H4V48Z" fill="#EFE8E0"/>
    <path d="M1 49H0V50H1V49Z" fill="#EFE8E0"/>
    <path d="M2 49H1V50H2V49Z" fill="#DFD7CF"/>
    <path d="M3 49H2V50H3V49Z" fill="#EFE8E0"/>
    <path d="M4 49H3V50H4V49Z" fill="#DFD7CF"/>
    <path d="M1 50H0V51H1V50Z" fill="#DFD7CF"/>
    <path d="M2 50H1V51H2V50Z" fill="#EFE8E0"/>
    <path d="M3 50H2V51H3V50Z" fill="#DFD7CF"/>
    <path d="M4 50H3V51H4V50Z" fill="#EFE8E0"/>
    <path d="M1 51H0V52H1V51Z" fill="#EFE8E0"/>
    <path d="M2 51H1V52H2V51Z" fill="#DFD7CF"/>
    <path d="M3 51H2V52H3V51Z" fill="#EFE8E0"/>
    <path d="M4 51H3V52H4V51Z" fill="#DFD7CF"/>
    <path d="M1 52H0V53H1V52Z" fill="#DFD7CF"/>
    <path d="M2 52H1V53H2V52Z" fill="#DFD7CF"/>
    <path d="M3 52H2V53H3V52Z" fill="#DFD7CF"/>
    <path d="M4 52H3V53H4V52Z" fill="#EFE8E0"/>
    <path d="M1 53H0V54H1V53Z" fill="#EFE8E0"/>
    <path d="M2 53H1V54H2V53Z" fill="#DFD7CF"/>
    <path d="M3 53H2V54H3V53Z" fill="#EFE8E0"/>
    <path d="M4 53H3V54H4V53Z" fill="#DFD7CF"/>
    <path d="M1 54H0V55H1V54Z" fill="#DFD7CF"/>
    <path d="M2 54H1V55H2V54Z" fill="#EFE8E0"/>
    <path d="M3 54H2V55H3V54Z" fill="#DFD7CF"/>
    <path d="M4 54H3V55H4V54Z" fill="#DFD7CF"/>
    <path d="M1 55H0V56H1V55Z" fill="#EFE8E0"/>
    <path d="M2 55H1V56H2V55Z" fill="#DFD7CF"/>
    <path d="M3 55H2V56H3V55Z" fill="#EFE8E0"/>
    <path d="M4 55H3V56H4V55Z" fill="#DFD7CF"/>
    <path d="M1 56H0V57H1V56Z" fill="#DFD7CF"/>
    <path d="M2 56H1V57H2V56Z" fill="#DFD7CF"/>
    <path d="M3 56H2V57H3V56Z" fill="#DFD7CF"/>
    <path d="M4 56H3V57H4V56Z" fill="#DFD7CF"/>
    <path d="M1 57H0V58H1V57Z" fill="#DFD7CF"/>
    <path d="M2 57H1V58H2V57Z" fill="#DFD7CF"/>
    <path d="M3 57H2V58H3V57Z" fill="#EFE8E0"/>
    <path d="M4 57H3V58H4V57Z" fill="#DFD7CF"/>
    <path d="M1 58H0V59H1V58Z" fill="#DFD7CF"/>
    <path d="M2 58H1V59H2V58Z" fill="#DFD7CF"/>
    <path d="M3 58H2V59H3V58Z" fill="#DFD7CF"/>
    <path d="M4 58H3V59H4V58Z" fill="#DFD7CF"/>
    <path d="M1 59H0V60H1V59Z" fill="#EFE8E0"/>
    <path d="M2 59H1V60H2V59Z" fill="#DFD7CF"/>
    <path d="M3 59H2V60H3V59Z" fill="#DFD7CF"/>
    <path d="M4 59H3V60H4V59Z" fill="#DFD7CF"/>
    <path d="M1 60H0V61H1V60Z" fill="#DFD7CF"/>
    <path d="M2 60H1V61H2V60Z" fill="#DFD7CF"/>
    <path d="M3 60H2V61H3V60Z" fill="#DFD7CF"/>
    <path d="M4 60H3V61H4V60Z" fill="#DFD7CF"/>
    <path d="M1 61H0V62H1V61Z" fill="#DFD7CF"/>
    <path d="M2 61H1V62H2V61Z" fill="#DFD7CF"/>
    <path d="M3 61H2V62H3V61Z" fill="#DFD7CF"/>
    <path d="M4 61H3V62H4V61Z" fill="#DFD7CF"/>
    <path d="M1 62H0V63H1V62Z" fill="#DFD7CF"/>
    <path d="M2 62H1V63H2V62Z" fill="#DFD7CF"/>
    <path d="M3 62H2V63H3V62Z" fill="#DFD7CF"/>
    <path d="M4 62H3V63H4V62Z" fill="#DFD7CF"/>
    <path d="M1 63H0V64H1V63Z" fill="#DFD7CF"/>
    <path d="M2 63H1V64H2V63Z" fill="#DFD7CF"/>
    <path d="M3 63H2V64H3V63Z" fill="#DFD7CF"/>
    <path d="M4 63H3V64H4V63Z" fill="#DFD7CF"/>
    <path d="M1 64H0V65H1V64Z" fill="#DFD7CF"/>
    <path d="M2 64H1V65H2V64Z" fill="#DFD7CF"/>
    <path d="M3 64H2V65H3V64Z" fill="#DFD7CF"/>
    <path d="M4 64H3V65H4V64Z" fill="#DFD7CF"/>
    <path d="M1 65H0V66H1V65Z" fill="#DFD7CF"/>
    <path d="M2 65H1V66H2V65Z" fill="#DFD7CF"/>
    <path d="M3 65H2V66H3V65Z" fill="#DFD7CF"/>
    <path d="M4 65H3V66H4V65Z" fill="#DFD7CF"/>
    <path d="M1 66H0V67H1V66Z" fill="#DFD7CF"/>
    <path d="M2 66H1V67H2V66Z" fill="#DFD7CF"/>
    <path d="M3 66H2V67H3V66Z" fill="#DFD7CF"/>
    <path d="M4 66H3V67H4V66Z" fill="#DFD7CF"/>
    <path d="M1 67H0V68H1V67Z" fill="#DFD7CF"/>
    <path d="M2 67H1V68H2V67Z" fill="#DFD7CF"/>
    <path d="M3 67H2V68H3V67Z" fill="#DFD7CF"/>
    <path d="M4 67H3V68H4V67Z" fill="#DFD7CF"/>
    <path d="M1 68H0V69H1V68Z" fill="#D0CAC2"/>
    <path d="M2 68H1V69H2V68Z" fill="#DFD7CF"/>
    <path d="M3 68H2V69H3V68Z" fill="#DFD7CF"/>
    <path d="M4 68H3V69H4V68Z" fill="#DFD7CF"/>
    <path d="M1 69H0V70H1V69Z" fill="#DFD7CF"/>
    <path d="M2 69H1V70H2V69Z" fill="#DFD7CF"/>
    <path d="M3 69H2V70H3V69Z" fill="#DFD7CF"/>
    <path d="M4 69H3V70H4V69Z" fill="#DFD7CF"/>
    <path d="M1 70H0V71H1V70Z" fill="#DFD7CF"/>
    <path d="M2 70H1V71H2V70Z" fill="#DFD7CF"/>
    <path d="M3 70H2V71H3V70Z" fill="#D0CAC2"/>
    <path d="M4 70H3V71H4V70Z" fill="#DFD7CF"/>
    <path d="M1 71H0V72H1V71Z" fill="#DFD7CF"/>
    <path d="M2 71H1V72H2V71Z" fill="#DFD7CF"/>
    <path d="M3 71H2V72H3V71Z" fill="#DFD7CF"/>
    <path d="M4 71H3V72H4V71Z" fill="#DFD7CF"/>
    <path d="M1 72H0V73H1V72Z" fill="#D0CAC2"/>
    <path d="M2 72H1V73H2V72Z" fill="#DFD7CF"/>
    <path d="M3 72H2V73H3V72Z" fill="#D0CAC2"/>
    <path d="M4 72H3V73H4V72Z" fill="#DFD7CF"/>
    <path d="M1 73H0V74H1V73Z" fill="#DFD7CF"/>
    <path d="M2 73H1V74H2V73Z" fill="#DFD7CF"/>
    <path d="M3 73H2V74H3V73Z" fill="#DFD7CF"/>
    <path d="M4 73H3V74H4V73Z" fill="#DFD7CF"/>
    <path d="M1 74H0V75H1V74Z" fill="#D0CAC2"/>
    <path d="M2 74H1V75H2V74Z" fill="#DFD7CF"/>
    <path d="M3 74H2V75H3V74Z" fill="#D0CAC2"/>
    <path d="M4 74H3V75H4V74Z" fill="#DFD7CF"/>
    <path d="M1 75H0V76H1V75Z" fill="#DFD7CF"/>
    <path d="M2 75H1V76H2V75Z" fill="#DFD7CF"/>
    <path d="M3 75H2V76H3V75Z" fill="#DFD7CF"/>
    <path d="M4 75H3V76H4V75Z" fill="#D0CAC2"/>
    <path d="M1 76H0V77H1V76Z" fill="#D0CAC2"/>
    <path d="M2 76H1V77H2V76Z" fill="#DFD7CF"/>
    <path d="M3 76H2V77H3V76Z" fill="#D0CAC2"/>
    <path d="M4 76H3V77H4V76Z" fill="#DFD7CF"/>
    <path d="M1 77H0V78H1V77Z" fill="#DFD7CF"/>
    <path d="M2 77H1V78H2V77Z" fill="#D0CAC2"/>
    <path d="M3 77H2V78H3V77Z" fill="#DFD7CF"/>
    <path d="M4 77H3V78H4V77Z" fill="#D0CAC2"/>
    <path d="M1 78H0V79H1V78Z" fill="#D0CAC2"/>
    <path d="M2 78H1V79H2V78Z" fill="#DFD7CF"/>
    <path d="M3 78H2V79H3V78Z" fill="#D0CAC2"/>
    <path d="M4 78H3V79H4V78Z" fill="#DFD7CF"/>
    <path d="M1 79H0V80H1V79Z" fill="#DFD7CF"/>
    <path d="M2 79H1V80H2V79Z" fill="#D0CAC2"/>
    <path d="M3 79H2V80H3V79Z" fill="#DFD7CF"/>
    <path d="M4 79H3V80H4V79Z" fill="#D0CAC2"/>
    <path d="M1 80H0V81H1V80Z" fill="#D0CAC2"/>
    <path d="M2 80H1V81H2V80Z" fill="#DFD7CF"/>
    <path d="M3 80H2V81H3V80Z" fill="#D0CAC2"/>
    <path d="M4 80H3V81H4V80Z" fill="#DFD7CF"/>
    <path d="M1 81H0V82H1V81Z" fill="#DFD7CF"/>
    <path d="M2 81H1V82H2V81Z" fill="#D0CAC2"/>
    <path d="M3 81H2V82H3V81Z" fill="#DFD7CF"/>
    <path d="M4 81H3V82H4V81Z" fill="#D0CAC2"/>
    <path d="M1 82H0V83H1V82Z" fill="#D0CAC2"/>
    <path d="M2 82H1V83H2V82Z" fill="#DFD7CF"/>
    <path d="M3 82H2V83H3V82Z" fill="#D0CAC2"/>
    <path d="M4 82H3V83H4V82Z" fill="#DFD7CF"/>
    <path d="M1 83H0V84H1V83Z" fill="#DFD7CF"/>
    <path d="M2 83H1V84H2V83Z" fill="#D0CAC2"/>
    <path d="M3 83H2V84H3V83Z" fill="#DFD7CF"/>
    <path d="M4 83H3V84H4V83Z" fill="#D0CAC2"/>
    <path d="M1 84H0V85H1V84Z" fill="#D0CAC2"/>
    <path d="M2 84H1V85H2V84Z" fill="#D0CAC2"/>
    <path d="M3 84H2V85H3V84Z" fill="#D0CAC2"/>
    <path d="M4 84H3V85H4V84Z" fill="#DFD7CF"/>
    <path d="M1 85H0V86H1V85Z" fill="#DFD7CF"/>
    <path d="M2 85H1V86H2V85Z" fill="#D0CAC2"/>
    <path d="M3 85H2V86H3V85Z" fill="#DFD7CF"/>
    <path d="M4 85H3V86H4V85Z" fill="#D0CAC2"/>
    <path d="M1 86H0V87H1V86Z" fill="#D0CAC2"/>
    <path d="M2 86H1V87H2V86Z" fill="#D0CAC2"/>
    <path d="M3 86H2V87H3V86Z" fill="#D0CAC2"/>
    <path d="M4 86H3V87H4V86Z" fill="#D0CAC2"/>
    <path d="M1 87H0V88H1V87Z" fill="#DFD7CF"/>
    <path d="M2 87H1V88H2V87Z" fill="#D0CAC2"/>
    <path d="M3 87H2V88H3V87Z" fill="#DFD7CF"/>
    <path d="M4 87H3V88H4V87Z" fill="#D0CAC2"/>
    <path d="M1 88H0V89H1V88Z" fill="#D0CAC2"/>
    <path d="M2 88H1V89H2V88Z" fill="#D0CAC2"/>
    <path d="M3 88H2V89H3V88Z" fill="#D0CAC2"/>
    <path d="M4 88H3V89H4V88Z" fill="#D0CAC2"/>
    <path d="M1 89H0V90H1V89Z" fill="#D0CAC2"/>
    <path d="M2 89H1V90H2V89Z" fill="#D0CAC2"/>
    <path d="M3 89H2V90H3V89Z" fill="#DFD7CF"/>
    <path d="M4 89H3V90H4V89Z" fill="#D0CAC2"/>
    <path d="M1 90H0V91H1V90Z" fill="#D0CAC2"/>
    <path d="M2 90H1V91H2V90Z" fill="#D0CAC2"/>
    <path d="M3 90H2V91H3V90Z" fill="#D0CAC2"/>
    <path d="M4 90H3V91H4V90Z" fill="#D0CAC2"/>
    <path d="M1 91H0V92H1V91Z" fill="#DFD7CF"/>
    <path d="M2 91H1V92H2V91Z" fill="#D0CAC2"/>
    <path d="M3 91H2V92H3V91Z" fill="#D0CAC2"/>
    <path d="M4 91H3V92H4V91Z" fill="#D0CAC2"/>
    <path d="M1 92H0V93H1V92Z" fill="#D0CAC2"/>
    <path d="M2 92H1V93H2V92Z" fill="#D0CAC2"/>
    <path d="M3 92H2V93H3V92Z" fill="#D0CAC2"/>
    <path d="M4 92H3V93H4V92Z" fill="#D0CAC2"/>
    <path d="M1 93H0V94H1V93Z" fill="#D0CAC2"/>
    <path d="M2 93H1V94H2V93Z" fill="#D0CAC2"/>
    <path d="M3 93H2V94H3V93Z" fill="#D0CAC2"/>
    <path d="M4 93H3V94H4V93Z" fill="#D0CAC2"/>
    <path d="M1 94H0V95H1V94Z" fill="#D0CAC2"/>
    <path d="M2 94H1V95H2V94Z" fill="#D0CAC2"/>
    <path d="M3 94H2V95H3V94Z" fill="#D0CAC2"/>
    <path d="M4 94H3V95H4V94Z" fill="#D0CAC2"/>
    <path d="M1 95H0V96H1V95Z" fill="#D0CAC2"/>
    <path d="M2 95H1V96H2V95Z" fill="#D0CAC2"/>
    <path d="M3 95H2V96H3V95Z" fill="#D0CAC2"/>
    <path d="M4 95H3V96H4V95Z" fill="#D0CAC2"/>
  </g>
  <defs>
    <clipPath id="clip0_1_2">
      <rect fill="white" height="96" width="4"/>
    </clipPath>
  </defs>
</svg>
